<svg width="18" height="14" viewBox="0 0 18 14" fill="none" xmlns="http://www.w3.org/2000/svg">
<path d="M10.59 8.59002C10.384 8.81108 10.1356 8.98839 9.85961 9.11136C9.58362 9.23434 9.28568 9.30046 8.98357 9.30579C8.68146 9.31112 8.38137 9.25555 8.10121 9.14239C7.82104 9.02922 7.56654 8.86079 7.35288 8.64713C7.13923 8.43348 6.97079 8.17898 6.85763 7.89881C6.74447 7.61865 6.68889 7.31856 6.69423 7.01645C6.69956 6.71434 6.76568 6.4164 6.88866 6.1404C7.01163 5.86441 7.18894 5.61601 7.41 5.41002M13.455 11.455C12.1729 12.4323 10.6118 12.9737 9 13C3.75 13 0.75 7.00002 0.75 7.00002C1.68292 5.26144 2.97685 3.74247 4.545 2.54502L13.455 11.455ZM7.425 1.18002C7.94125 1.05918 8.4698 0.998773 9 1.00002C14.25 1.00002 17.25 7.00002 17.25 7.00002C16.7947 7.85172 16.2518 8.65357 15.63 9.39252L7.425 1.18002Z" stroke="#AFB8CC" stroke-width="1.5" stroke-linecap="round" stroke-linejoin="round"/>
</svg>
