<svg width="16" height="20" viewBox="0 0 16 20" fill="none" xmlns="http://www.w3.org/2000/svg">
<path d="M5.0565 6.99526L5.05463 6.99678L5.05284 6.99851L5.0565 6.99526ZM13.3516 6.83981C13.2936 6.78394 13.2293 6.73504 13.1599 6.69414C13.0617 6.63636 12.9528 6.59933 12.8397 6.58534C12.7266 6.57135 12.6119 6.5807 12.5026 6.61281C12.3933 6.64493 12.2918 6.69912 12.2042 6.77204C12.1167 6.84495 12.0451 6.93505 11.9938 7.03676C11.7067 7.60233 11.3108 8.10566 10.8288 8.51787C10.9025 8.10254 10.9396 7.68155 10.9398 7.25973C10.9414 5.97648 10.6029 4.71574 9.95872 3.60587C9.31458 2.49599 8.38783 1.57664 7.27284 0.941396C7.15002 0.871769 7.01151 0.834488 6.87033 0.833051C6.72915 0.831614 6.58992 0.866068 6.4657 0.933181C6.34148 1.00029 6.23635 1.09787 6.16016 1.21674C6.08398 1.33561 6.03925 1.47189 6.03017 1.61279C5.98353 2.40293 5.77697 3.17539 5.42299 3.88334C5.06902 4.5913 4.57499 5.22003 3.97086 5.73142L3.7788 5.88767C3.14706 6.31275 2.58788 6.83676 2.12272 7.43959C1.39965 8.35051 0.898755 9.41737 0.659765 10.5556C0.420774 11.6938 0.450259 12.872 0.74588 13.9968C1.0415 15.1216 1.59513 16.1621 2.36286 17.0357C3.13058 17.9093 4.0913 18.5921 5.16881 19.0298C5.29532 19.0815 5.43262 19.1012 5.56858 19.0873C5.70454 19.0734 5.83499 19.0263 5.94842 18.95C6.06185 18.8738 6.15478 18.7708 6.219 18.6502C6.28323 18.5295 6.31678 18.3949 6.31669 18.2583C6.3161 18.1699 6.3021 18.0821 6.27519 17.9979C6.08875 17.297 6.03506 16.5675 6.1169 15.847C6.90543 17.3342 8.17118 18.5131 9.71065 19.1941C9.89856 19.2782 10.111 19.2895 10.3068 19.2259C11.5231 18.8333 12.6188 18.1362 13.4898 17.2009C14.3608 16.2656 14.9782 15.1231 15.2833 13.882C15.5884 12.6408 15.5711 11.3423 15.233 10.1097C14.8949 8.8772 14.2473 7.75157 13.3516 6.83981ZM10.0976 17.5324C9.3712 17.1642 8.73041 16.6473 8.2169 16.0153C7.70338 15.3832 7.32865 14.6501 7.11705 13.8637C7.05243 13.599 7.00244 13.3308 6.96731 13.0605C6.94351 12.8884 6.86651 12.728 6.74708 12.6018C6.62765 12.4756 6.47176 12.3898 6.30122 12.3566C6.24868 12.3462 6.19525 12.341 6.14169 12.3411C5.99523 12.3411 5.85134 12.3796 5.72453 12.4529C5.59773 12.5262 5.4925 12.6317 5.41944 12.7586C4.728 13.9512 4.38027 15.312 4.4148 16.6901C3.80667 16.2173 3.29843 15.6284 2.91953 14.9578C2.54064 14.2871 2.29863 13.5478 2.20753 12.7829C2.11643 12.018 2.17805 11.2426 2.38882 10.5017C2.59959 9.76078 2.95532 9.06906 3.43539 8.46663C3.7999 7.99316 4.23963 7.58271 4.73706 7.25163C4.7586 7.23773 4.77925 7.22251 4.79891 7.20605C4.79891 7.20605 5.04615 7.00149 5.0546 6.99681C6.24185 5.99261 7.08627 4.64307 7.47022 3.13623C8.37819 3.97559 8.98363 5.09125 9.19251 6.30999C9.4014 7.52872 9.20204 8.78232 8.62541 9.87614C8.54922 10.0221 8.51797 10.1873 8.53559 10.351C8.55322 10.5147 8.61892 10.6696 8.72443 10.796C8.82993 10.9224 8.97051 11.0147 9.12842 11.0613C9.28633 11.1079 9.45451 11.1067 9.61173 11.0578C10.8882 10.6577 12.0115 9.87607 12.8303 8.81822C13.3225 9.54513 13.6442 10.3737 13.7716 11.2423C13.899 12.1108 13.8287 12.9969 13.566 13.8345C13.3033 14.6721 12.855 15.4397 12.2545 16.0799C11.654 16.7202 10.9167 17.2167 10.0976 17.5324L10.0976 17.5324Z" fill="white"/>
</svg>
